<?xml version="1.0" standalone="no"?>
<!DOCTYPE svg PUBLIC "-//W3C//DTD SVG 20010904//EN"
 "http://www.w3.org/TR/2001/REC-SVG-20010904/DTD/svg10.dtd">
<svg version="1.0" xmlns="http://www.w3.org/2000/svg"
 width="64.000000pt" height="64.000000pt" viewBox="0 0 64.000000 64.000000"
 preserveAspectRatio="xMidYMid meet">

<g transform="translate(0.000000,64.000000) scale(0.100000,-0.100000)"
fill="#000000" stroke="none">
<path d="M204 611 c-203 -92 -253 -356 -98 -515 117 -120 317 -118 428 4 57
63 79 116 84 200 7 135 -53 241 -170 299 -51 26 -73 31 -132 31 -48 0 -85 -7
-112 -19z m212 -26 c64 -26 112 -73 145 -141 18 -35 30 -67 27 -70 -3 -2 -26
11 -52 31 -25 19 -49 35 -52 35 -4 0 -22 -13 -41 -30 -45 -40 -101 -41 -156
-3 l-39 27 -22 -27 c-26 -32 -30 -33 -67 -6 l-30 21 -45 -49 -45 -48 6 35 c28
145 136 240 273 240 34 0 79 -7 98 -15z m175 -245 c5 0 9 -7 9 -16 0 -13 -3
-14 -14 -5 -17 14 -39 -9 -30 -33 3 -9 1 -16 -5 -16 -6 0 -11 -4 -11 -10 0 -5
7 -10 15 -10 8 0 15 -4 15 -10 0 -13 -23 -13 -55 2 -26 11 -34 28 -14 28 8 0
8 4 0 13 -7 9 -7 17 0 24 7 7 5 14 -6 23 -14 12 -18 11 -25 0 -5 -8 -6 -18 -3
-22 2 -5 -1 -15 -7 -23 -9 -11 -9 -15 -1 -15 6 0 11 -4 11 -8 0 -4 -16 -8 -35
-8 -19 0 -35 4 -35 8 0 4 5 8 11 8 6 0 7 5 2 13 -4 6 -8 18 -8 24 0 15 -20 13
-20 -2 0 -5 -4 -16 -8 -22 -5 -8 -4 -13 2 -13 6 0 11 -4 11 -9 0 -7 -89 -51
-104 -51 -3 0 -6 13 -6 30 0 19 -7 33 -20 40 -14 8 -19 17 -15 30 3 10 1 21
-4 24 -16 10 -42 -54 -36 -88 7 -38 -2 -52 -38 -61 -23 -6 -27 -4 -27 13 0 12
-5 24 -10 27 -5 3 -10 10 -10 16 0 14 28 11 33 -3 4 -10 6 -10 6 -1 1 6 -8 18
-20 26 -11 8 -19 23 -17 32 2 10 -3 20 -9 22 -7 3 -13 -2 -13 -10 0 -8 -7 -20
-15 -27 -11 -9 -13 -23 -9 -51 9 -54 -10 -50 -26 6 l-12 44 43 50 c48 55 55
57 83 36 19 -14 19 -15 1 -35 -10 -11 -15 -23 -11 -27 4 -5 28 14 52 40 49 51
56 54 74 32 35 -42 136 -37 179 9 l22 24 51 -34 c27 -19 54 -34 59 -34z m-324
-106 c1 -18 0 -22 -4 -9 -3 11 -10 26 -17 34 -9 11 -8 13 4 9 8 -2 16 -18 17
-34z m-17 -25 c0 -5 -7 -9 -15 -9 -9 0 -12 6 -9 15 6 15 24 11 24 -6z m258 6
c33 -10 52 -21 52 -31 0 -11 -6 -13 -22 -8 -13 4 -57 15 -98 24 -47 11 -68 19
-55 22 37 10 71 8 123 -7z m-388 -31 c0 -8 -4 -14 -10 -14 -5 0 -10 9 -10 21
0 11 5 17 10 14 6 -3 10 -13 10 -21z m344 -19 l28 -8 -32 -13 c-48 -21 -335
-27 -351 -8 -9 12 -6 14 17 14 16 0 47 5 69 11 90 26 179 27 269 4z m-94 -71
l32 -7 -58 -23 c-70 -29 -87 -29 -144 -2 l-45 21 35 7 c47 10 140 11 180 4z"/>
<path d="M460 521 c0 -11 4 -21 9 -21 18 0 21 18 6 30 -13 10 -15 9 -15 -9z"/>
<path d="M136 466 c3 -9 11 -16 16 -16 13 0 5 23 -10 28 -7 2 -10 -2 -6 -12z"/>
<path d="M170 415 c0 -16 16 -20 24 -6 3 5 -1 11 -9 15 -9 3 -15 0 -15 -9z"/>
</g>
</svg>
